<?xml version="1.0" encoding="utf-8"?>
<!-- Generator: Adobe Illustrator 16.0.0, SVG Export Plug-In . SVG Version: 6.00 Build 0)  -->
<!DOCTYPE svg PUBLIC "-//W3C//DTD SVG 1.1//EN" "http://www.w3.org/Graphics/SVG/1.1/DTD/svg11.dtd">
<svg version="1.1" id="Your_Icon" xmlns="http://www.w3.org/2000/svg" xmlns:xlink="http://www.w3.org/1999/xlink" x="0px" y="0px"
	 width="100px" height="100px" viewBox="0 0 100 100" enable-background="new 0 0 100 100" xml:space="preserve">
<path fill="#FFFFFF" d="M50.297,13.407c-20.417,0-37.038,16.607-37.038,37.024c0,20.43,16.62,37.049,37.038,37.049
	c20.416,0,37.037-16.619,37.037-37.049C87.334,30.015,70.713,13.407,50.297,13.407z M50.297,80.744
	c-16.71,0-30.3-13.592-30.3-30.313c0-16.709,13.59-30.287,30.3-30.287c16.709,0,30.299,13.577,30.299,30.287
	C80.596,67.154,67.006,80.744,50.297,80.744z"/>
<path fill="#FFFFFF" d="M63.152,47.481H53.26V36.848c0-1.491-1.473-2.7-2.963-2.7c-1.492,0-2.963,1.209-2.963,2.7v10.634H36.699
	c-1.49,0-2.699,1.472-2.699,2.963s1.209,2.963,2.699,2.963h10.634V63.3c0,1.492,1.472,2.7,2.963,2.7c1.49,0,2.963-1.208,2.963-2.7
	v-9.893h9.894c1.49,0,2.699-1.472,2.699-2.963C65.852,48.953,64.645,47.481,63.152,47.481z"/>
</svg>
