<?xml version="1.0" encoding="utf-8"?>
<!-- Generator: Adobe Illustrator 16.0.0, SVG Export Plug-In . SVG Version: 6.00 Build 0)  -->
<!DOCTYPE svg PUBLIC "-//W3C//DTD SVG 1.1//EN" "http://www.w3.org/Graphics/SVG/1.1/DTD/svg11.dtd">
<svg version="1.1" xmlns="http://www.w3.org/2000/svg" xmlns:xlink="http://www.w3.org/1999/xlink" x="0px" y="0px" width="100px"
	 height="100px" viewBox="0 0 100 100" enable-background="new 0 0 100 100" xml:space="preserve">
<g id="Layer_2">
	<rect x="-20.5" y="-6" stroke="#FFFFFF" stroke-miterlimit="10" width="129.25" height="129"/>
</g>
<g id="Your_Icon">
	<path fill="#FFFFFF" d="M50.297,13.407c-20.417,0-37.038,16.607-37.038,37.024c0,20.43,16.62,37.049,37.038,37.049
		c20.416,0,37.037-16.619,37.037-37.049C87.334,30.015,70.713,13.407,50.297,13.407z M50.297,80.744
		c-16.71,0-30.3-13.592-30.3-30.313c0-16.709,13.59-30.287,30.3-30.287c16.709,0,30.299,13.577,30.299,30.287
		C80.596,67.154,67.006,80.744,50.297,80.744z"/>
</g>
<g id="Layer_3">
	<rect x="21.796" y="31.148" fill="none" width="57" height="73.25"/>
	<text transform="matrix(1 0 0 1 36.521 66.332)" fill="#FFFFFF" font-family="'HelveticaRoundedLT-Bold'" font-size="48">7</text>
</g>
</svg>
