<?xml version="1.0" encoding="utf-8"?>
<!-- Generator: Adobe Illustrator 16.0.0, SVG Export Plug-In . SVG Version: 6.00 Build 0)  -->
<!DOCTYPE svg PUBLIC "-//W3C//DTD SVG 1.1//EN" "http://www.w3.org/Graphics/SVG/1.1/DTD/svg11.dtd">
<svg version="1.1" id="Layer_1" xmlns="http://www.w3.org/2000/svg" xmlns:xlink="http://www.w3.org/1999/xlink" x="0px" y="0px"
	 width="100px" height="100px" viewBox="0 0 100 100" enable-background="new 0 0 100 100" xml:space="preserve">
<g>
	<g>
		<g>
			<path fill="#FFFFFF" d="M87.334,50.444c0-20.421-16.619-37.037-37.037-37.037c-20.424,0-37.038,16.615-37.038,37.037
				c0,20.422,16.613,37.039,37.038,37.039C70.715,87.48,87.334,70.865,87.334,50.444z M17.533,50.444
				c0-18.066,14.698-32.762,32.764-32.762c18.064,0,32.764,14.696,32.764,32.762S68.361,83.207,50.297,83.207
				C32.231,83.207,17.533,68.51,17.533,50.444z"/>
		</g>
	</g>
	<g>
		<g>
			<path fill="#FFFFFF" d="M69.18,46.579c0.836-0.834,0.836-2.187,0-3.021c-0.834-0.834-2.187-0.834-3.021,0L50.297,59.423
				L34.43,43.558c-0.834-0.834-2.187-0.834-3.021,0c-0.417,0.417-0.626,0.965-0.626,1.511c0,0.547,0.209,1.093,0.626,1.511
				l17.377,17.374c0.835,0.835,2.188,0.835,3.021,0L69.18,46.579z"/>
		</g>
	</g>
</g>
</svg>
