<svg xmlns="http://www.w3.org/2000/svg" xmlns:xlink="http://www.w3.org/1999/xlink" version="1.1" id="Layer_1" x="0px" y="0px" width="90px" height="90px" viewBox="4.5 -9.0 90.0 121.5" enable-background="new 0 0 90 90" xml:space="preserve">
<line fill="none" stroke="#000000" stroke-linecap="round" stroke-linejoin="round" stroke-miterlimit="10" x1="80.961" y1="51.141" x2="46.53" y2="59.718"/>
<circle fill="none" stroke="#000000" stroke-linecap="round" stroke-linejoin="round" stroke-miterlimit="10" cx="65.456" cy="47.181" r="3.042"/>
<path fill="none" stroke="#000000" stroke-linecap="round" stroke-linejoin="round" stroke-miterlimit="10" d="M54.953,41.419  c0,0,0.962-4.498,4.033-1.276c1.623,1.702,2.277,1.519,3.75,0.179"/>
<path fill="none" stroke="#000000" stroke-linecap="round" stroke-linejoin="round" stroke-miterlimit="10" d="M55.348,52.928  c0,0-4.447,1.18-2.965-3.018c0.781-2.217,0.321-2.717-1.539-3.424"/>
<path fill="none" stroke="#000000" stroke-linecap="round" stroke-linejoin="round" stroke-miterlimit="10" d="M80.961,51.141  c0,0,4.453,3.561,3.297,6.939c-3.715,1.262-38.132,10.145-38.132,10.145s-2.427-2.551,0.404-8.507l1.234-25.964  c2.692,3.339,2.628,1.813,5.995,1.974s2.771-1.778,3.506-3.966c4.553-0.427,2.899-3.494,2.899-3.494l20.804,22.697"/>
<polygon fill="none" stroke="#000000" stroke-linecap="round" stroke-linejoin="round" stroke-miterlimit="10" points="  44.354,16.412 40.601,64.326 10.764,45.121 "/>
<circle fill="none" stroke="#000000" stroke-linecap="round" stroke-linejoin="round" stroke-miterlimit="10" cx="32.862" cy="50.319" r="3.042"/>
<circle fill="none" stroke="#000000" stroke-linecap="round" stroke-linejoin="round" stroke-miterlimit="10" cx="36.969" cy="31.347" r="2.876"/>
<path fill="none" stroke="#000000" stroke-linecap="round" stroke-linejoin="round" stroke-miterlimit="10" d="M29.865,38.72  c0,0,3.936-2.381,3.692,2.064c-0.128,2.348,0.454,2.699,2.439,2.854"/>
<path fill="none" stroke="#000000" stroke-linecap="round" stroke-linejoin="round" stroke-miterlimit="10" d="M21.75,46.892  c0,0-3.905-2.43,0.168-4.227c2.15-0.949,2.2-1.627,1.438-3.467"/>
<path fill="none" stroke="#000000" stroke-linecap="round" stroke-linejoin="round" stroke-miterlimit="10" d="M40.601,64.326  c0,0,0.457,5.685-2.796,7.156C34.34,69.642,4.289,50.655,4.289,50.655s0.197-3.516,6.475-5.534"/>
<text x="0.0" y="105.75" font-size="4.5" font-weight="bold" font-family="Helvetica Neue, Helvetica, Arial-Unicode, Arial, Sans-serif" fill="#000000">Created by Amy Lee</text><text x="0.0" y="110.25" font-size="4.5" font-weight="bold" font-family="Helvetica Neue, Helvetica, Arial-Unicode, Arial, Sans-serif" fill="#000000">from the Noun Project</text></svg>